<svg width="1440" height="465" viewBox="0 0 1440 465" fill="none" xmlns="http://www.w3.org/2000/svg">
<path d="M627.333 1448.05C722.001 1352.13 777.02 1406.43 871.688 1310.51C966.355 1214.59 911.336 1160.28 1005.98 1064.39C1100.62 968.489 1155.66 1022.76 1250.33 926.844C1344.99 830.921 1289.98 776.618 1384.65 680.695C1479.32 584.772 1534.33 639.074 1629.03 543.123C1723.72 447.173 1668.68 392.898 1763.34 296.974M-448.852 368.172C-354.185 272.248 -299.165 326.552 -204.498 230.629C-109.83 134.705 -164.85 80.4016 -70.2092 -15.4944C24.4303 -111.39 79.4777 -57.1142 174.145 -153.038C268.813 -248.961 213.793 -303.264 308.461 -399.188C403.128 -495.111 458.148 -440.808 552.842 -536.758C647.537 -632.709 592.49 -686.985 687.158 -782.909M238.79 1044.71C333.457 948.786 388.477 1003.09 483.144 907.169C577.812 811.245 522.792 756.942 617.433 661.047C712.072 565.151 767.12 619.426 861.788 523.503C956.455 427.579 901.435 373.277 996.103 277.354C1090.77 181.43 1145.79 235.733 1240.48 139.782C1335.18 43.8313 1280.13 -10.4436 1374.8 -106.367M-110.208 700.716C-15.5398 604.793 39.4801 659.097 134.147 563.173C228.815 467.25 173.795 412.948 268.436 317.052C363.076 221.156 418.123 275.432 512.79 179.508C607.458 83.5849 552.438 29.2814 647.106 -66.642C741.773 -162.565 796.793 -108.262 891.487 -204.213C986.183 -300.164 931.135 -354.439 1025.8 -450.363M576.066 1387.4C670.734 1291.49 725.754 1345.78 820.421 1249.86C915.089 1153.94 860.069 1099.63 954.71 1003.74C1049.35 907.842 1104.4 962.114 1199.06 866.195C1293.73 770.272 1238.71 715.968 1333.37 620.045C1428.04 524.121 1483.07 578.425 1577.76 482.474C1672.46 386.524 1617.41 332.247 1712.08 236.324M-282.44 545.264C-187.772 449.341 -132.753 503.643 -38.0856 407.72C56.582 311.796 1.56259 257.494 96.2026 161.598C190.843 65.7021 245.89 119.978 340.557 24.0549C435.225 -71.8684 380.205 -126.172 474.872 -222.095C569.54 -318.019 624.56 -263.715 719.255 -359.666C813.949 -455.617 758.903 -509.893 853.57 -605.816M403.834 1220.67C498.502 1124.74 553.522 1179.04 648.189 1083.12C742.857 987.198 687.837 932.893 782.476 836.997C877.117 741.101 932.164 795.377 1026.83 699.454C1121.5 603.53 1066.48 549.227 1161.15 453.303C1255.81 357.38 1310.83 411.684 1405.53 315.733C1500.23 219.782 1445.18 165.506 1539.85 69.5827M56.2036 877.805C150.871 781.882 205.891 836.185 300.559 740.262C395.226 644.339 340.206 590.035 434.847 494.14C529.486 398.245 584.533 452.519 679.201 356.596C773.868 260.673 718.849 206.37 813.517 110.447C908.184 14.5237 963.203 68.8272 1057.9 -27.1246C1152.59 -123.075 1097.55 -177.351 1192.21 -273.274M742.481 1564.5C837.15 1468.57 892.168 1522.88 986.836 1426.95C1081.5 1331.03 1026.48 1276.73 1121.12 1180.83C1215.76 1084.94 1270.81 1139.21 1365.48 1043.29C1460.15 947.36 1405.13 893.061 1499.8 797.137C1594.46 701.214 1649.48 755.517 1744.18 659.567C1838.87 563.616 1783.82 509.34 1878.49 413.417M-471.857 336.812C-377.19 240.888 -322.17 295.192 -227.503 199.269C-132.835 103.345 -187.855 49.0417 -93.2141 -46.8542C1.42543 -142.749 56.4727 -88.4739 151.14 -184.397C245.808 -280.32 190.788 -334.623 285.456 -430.547C380.123 -526.47 435.143 -472.167 529.837 -568.118C624.532 -664.069 569.485 -718.344 664.153 -814.267M215.789 1013.36C310.456 917.431 365.476 971.741 460.143 875.812C554.811 779.888 499.791 725.586 594.432 629.69C689.071 533.794 744.119 588.07 838.786 492.147C933.454 396.223 878.434 341.92 973.102 245.997C1067.77 150.073 1122.79 204.377 1217.48 108.426C1312.18 12.4741 1257.13 -41.8009 1351.8 -137.724M-133.209 669.356C-38.541 573.433 16.4789 627.735 111.146 531.813C205.814 435.889 150.794 381.586 245.434 285.69C340.074 189.794 395.122 244.07 489.789 148.147C584.457 52.2232 529.437 -2.08022 624.105 -98.0032C718.772 -193.927 773.792 -139.623 868.486 -235.574C963.181 -331.525 908.134 -385.801 1002.8 -481.724M553.065 1356.05C647.733 1260.12 702.753 1314.43 797.42 1218.5C892.088 1122.58 837.068 1068.28 931.708 972.377C1026.35 876.485 1081.4 930.76 1176.06 834.837C1270.73 738.914 1215.71 684.611 1310.38 588.688C1405.05 492.765 1460.07 547.067 1554.76 451.116C1649.45 355.165 1594.4 300.891 1689.07 204.967M-305.445 513.903C-210.777 417.98 -155.758 472.284 -61.0906 376.36C33.5775 280.437 -21.4424 226.134 73.1977 130.238C167.838 34.3416 222.885 88.6176 317.552 -7.30572C412.22 -103.229 357.2 -157.532 451.867 -253.456C546.535 -349.379 601.555 -295.076 696.25 -391.026C790.944 -486.977 735.898 -541.253 830.565 -637.177M380.832 1189.3C475.499 1093.39 530.519 1147.68 625.187 1051.76C719.854 955.831 664.834 901.533 759.475 805.637C854.115 709.742 909.162 764.017 1003.83 668.094C1098.5 572.17 1043.48 517.868 1138.15 421.945C1232.81 326.021 1287.83 380.324 1382.53 284.373C1477.22 188.422 1422.17 134.147 1516.84 38.224M33.2023 846.448C127.87 750.525 182.89 804.828 277.557 708.905C372.224 612.982 317.205 558.679 411.845 462.783C506.486 366.887 561.533 421.163 656.2 325.24C750.868 229.317 695.848 175.013 790.515 79.0899C885.183 -16.8335 940.203 37.47 1034.9 -58.4807C1129.59 -154.432 1074.55 -208.708 1169.21 -304.631M719.48 1533.14C814.147 1437.22 869.167 1491.51 963.834 1395.6C1058.5 1299.67 1003.48 1245.37 1098.12 1149.48C1192.76 1053.58 1247.81 1107.86 1342.48 1011.93C1437.14 916.007 1382.13 861.704 1476.79 765.782C1571.46 669.858 1626.48 724.161 1721.17 628.21C1815.87 532.259 1760.83 477.983 1855.49 382.06M-536.489 278.878C-441.822 182.955 -386.802 237.258 -292.134 141.335C-197.467 45.4115 -252.487 -8.89093 -157.846 -104.787C-63.2066 -200.683 -8.15937 -146.407 86.5083 -242.331C181.176 -338.253 126.156 -392.557 220.824 -488.48C315.491 -584.404 370.511 -530.1 465.206 -626.051C559.9 -722.003 504.853 -776.278 599.521 -872.201M151.153 955.423C245.82 859.498 300.839 913.8 395.507 817.877C490.174 721.954 435.156 667.651 529.795 571.755C624.436 475.859 679.483 530.135 774.15 434.212C868.818 338.288 813.798 283.985 908.465 188.062C1003.13 92.1382 1058.15 146.442 1152.85 50.491C1247.54 -45.4598 1192.5 -99.7357 1287.16 -195.659M-197.841 622.713C-103.174 526.789 -48.1543 581.093 46.5127 485.17C141.181 389.246 86.1609 334.943 180.801 239.048C275.441 143.152 330.488 197.427 425.155 101.503C519.823 5.58008 464.804 -48.7222 559.472 -144.646C654.139 -240.569 709.158 -186.266 803.853 -282.217C898.548 -378.168 843.501 -432.443 938.169 -528.366M488.433 1298.11C583.1 1202.19 638.12 1256.49 732.788 1160.57C827.455 1064.64 772.436 1010.35 867.076 914.447C961.717 818.551 1016.76 872.828 1111.43 776.904C1206.1 680.981 1151.08 626.677 1245.75 530.754C1340.41 434.831 1395.44 489.134 1490.13 393.184C1584.82 297.232 1529.77 242.957 1624.44 147.033M-370.078 455.97C-275.409 360.047 -220.391 414.351 -125.723 318.427C-31.0556 222.504 -86.0744 168.2 8.56517 72.3055C103.206 -23.5905 158.253 30.6846 252.92 -65.2388C347.587 -161.162 292.568 -215.465 387.235 -311.388C481.903 -407.311 536.922 -353.009 631.618 -448.96C726.312 -544.91 671.266 -599.185 765.933 -695.109M317.564 1132.51C412.231 1036.59 467.251 1090.89 561.919 994.962C656.586 899.042 601.566 844.74 696.207 748.844C790.848 652.948 845.894 707.224 940.562 611.301C1035.23 515.377 980.209 461.074 1074.88 365.15C1169.54 269.227 1224.56 323.531 1319.26 227.58C1413.95 131.628 1358.9 77.3531 1453.57 -18.5702M-31.4297 788.514C63.2377 692.591 118.257 746.895 212.925 650.971C307.592 555.048 252.573 500.744 347.213 404.848C441.854 308.952 496.9 363.229 591.568 267.305C686.235 171.382 631.215 117.078 725.883 21.1551C820.55 -74.7671 875.57 -20.4647 970.265 -116.415C1064.96 -212.366 1009.91 -266.642 1104.58 -362.566M654.844 1475.21C749.511 1379.28 804.531 1433.58 899.199 1337.67C993.866 1241.74 938.846 1187.43 1033.49 1091.54C1128.13 995.648 1183.17 1049.92 1277.84 953.997C1372.51 858.072 1317.49 803.77 1412.16 707.847C1506.83 611.923 1561.84 666.227 1656.53 570.275C1751.24 474.324 1696.19 420.049 1790.86 324.126M-421.345 395.324C-326.678 299.401 -271.658 353.704 -176.99 257.781C-82.3227 161.858 -137.343 107.554 -42.7019 11.6579C51.9382 -84.2375 106.985 -29.9618 201.653 -125.885C296.32 -221.808 241.3 -276.112 335.968 -372.035C430.635 -467.959 485.655 -413.655 580.35 -509.606C675.045 -605.557 619.998 -659.833 714.666 -755.756M266.301 1071.86C360.969 975.944 415.987 1030.24 510.656 934.318C605.323 838.395 550.304 784.091 644.943 688.196C739.584 592.3 794.631 646.575 889.298 550.652C983.966 454.729 928.946 400.426 1023.61 304.503C1118.28 208.58 1173.3 262.883 1268 166.931C1362.69 70.9807 1307.64 16.7056 1402.31 -79.2177M-82.6968 727.867C11.9713 631.944 66.9906 686.246 161.658 590.323C256.326 494.399 201.306 440.097 295.946 344.201C390.587 248.305 445.634 302.581 540.301 206.658C634.969 110.735 579.949 56.4309 674.616 -39.4925C769.284 -135.416 824.304 -81.1123 918.998 -177.063C1013.69 -273.014 958.646 -327.29 1053.31 -423.213M603.577 1414.56C698.246 1318.64 753.264 1372.93 847.932 1277.02C942.599 1181.09 887.581 1126.78 982.22 1030.89C1076.86 934.996 1131.91 989.275 1226.58 893.348C1321.24 797.425 1266.22 743.122 1360.89 647.198C1455.55 551.275 1510.58 605.578 1605.27 509.628C1699.97 413.677 1644.93 359.401 1739.59 263.477M-254.933 572.416C-160.265 476.493 -105.246 530.795 -10.5783 434.872C84.089 338.95 29.0699 284.646 123.71 188.75C218.35 92.8545 273.397 147.131 368.064 51.2073C462.731 -44.7161 407.713 -99.0194 502.38 -194.943C597.048 -290.866 652.066 -236.563 746.762 -332.514C841.456 -428.464 786.41 -482.74 881.077 -578.664M431.345 1247.82C526.013 1151.89 581.032 1206.2 675.7 1110.27C770.367 1014.35 715.348 960.04 809.988 864.15C904.628 768.254 959.674 822.53 1054.34 726.607C1149.01 630.683 1093.99 576.38 1188.66 480.457C1283.33 384.535 1338.35 438.837 1433.04 342.886C1527.73 246.935 1472.68 192.659 1567.35 96.736M83.7146 904.958C178.382 809.035 233.402 863.339 328.07 767.415C422.737 671.492 367.717 617.188 462.357 521.294C556.998 425.398 612.044 479.673 706.712 383.749C801.379 287.826 746.359 233.524 841.028 137.6C935.695 41.6769 990.714 95.9804 1085.41 0.0285933C1180.1 -95.9218 1125.06 -150.197 1219.72 -246.121M769.989 1591.65C864.656 1495.72 919.676 1550.03 1014.34 1454.1C1109.01 1358.18 1053.99 1303.88 1148.63 1207.98C1243.27 1112.09 1298.32 1166.36 1392.98 1070.44C1487.65 974.521 1432.64 920.214 1527.3 824.291C1621.97 728.367 1676.99 782.671 1771.69 686.72C1866.38 590.769 1811.33 536.493 1906 440.57M-58.9408 761.365C35.7273 665.441 90.7466 719.745 185.414 623.822C280.081 527.899 225.062 473.595 319.702 377.699C414.343 281.803 469.39 336.079 564.057 240.156C658.725 144.232 603.705 89.9289 698.372 -5.99448C793.04 -101.917 848.06 -47.6143 942.754 -143.565C1037.45 -239.516 982.402 -293.792 1077.07 -389.715M-564 251.726C-469.333 155.802 -414.313 210.106 -319.645 114.182C-224.978 18.259 -279.997 -36.0434 -185.357 -131.94C-90.7166 -227.835 -35.6705 -173.56 58.9975 -269.483C153.665 -365.406 98.6454 -419.709 193.313 -515.633C287.981 -611.556 343 -557.253 437.695 -653.203C532.389 -749.155 477.342 -803.43 572.01 -899.354M123.645 928.268C218.313 832.344 273.333 886.647 368 790.723C462.668 694.8 407.648 640.498 502.289 544.602C596.928 448.706 651.976 502.982 746.643 407.058C841.311 311.135 786.291 256.832 880.959 160.908C975.626 64.985 1030.65 119.289 1125.34 23.3378C1220.04 -72.6129 1164.99 -126.889 1259.66 -222.812M-225.352 595.56C-130.685 499.637 -75.6653 553.94 19.0028 458.017C113.67 362.094 58.6503 307.79 153.291 211.894C247.931 115.999 302.977 170.274 397.645 74.3511C492.312 -21.5723 437.293 -75.8746 531.961 -171.798C626.628 -267.722 681.647 -213.419 776.343 -309.369C871.037 -405.32 815.99 -459.595 910.658 -555.519M460.922 1270.96C555.59 1175.04 610.61 1229.35 705.277 1133.42C799.945 1037.49 744.925 983.186 839.565 887.296C934.205 791.4 989.253 845.676 1083.92 749.753C1178.59 653.829 1123.57 599.526 1218.23 503.603C1312.9 407.679 1367.92 461.983 1462.61 366.032C1557.32 270.08 1502.27 215.805 1596.94 119.882M-397.589 428.817C-302.921 332.894 -247.901 387.197 -153.234 291.274C-58.5656 195.351 -113.585 141.047 -18.9459 45.1511C75.6948 -50.7438 130.742 3.53126 225.409 -92.3918C320.077 -188.315 265.057 -242.618 359.724 -338.541C454.392 -434.465 509.412 -380.162 604.106 -476.113C698.801 -572.064 643.755 -626.339 738.422 -722.262M290.057 1105.36C384.725 1009.43 439.745 1063.74 534.412 967.817C629.08 871.894 574.06 817.591 668.699 721.695C763.34 625.799 818.388 680.076 913.055 584.152C1007.72 488.229 952.703 433.925 1047.37 338.002C1142.04 242.078 1197.06 296.382 1291.75 200.431C1386.45 104.479 1331.4 50.2045 1426.07 -45.7189M-499.364 309.66C-404.697 213.736 -349.677 268.04 -255.009 172.116C-160.342 76.1931 -215.362 21.8895 -120.721 -74.0065C-26.0807 -169.902 28.9654 -115.626 123.633 -211.55C218.301 -307.473 163.281 -361.777 257.949 -457.699C352.616 -553.622 407.635 -499.32 502.331 -595.27C597.025 -691.221 541.978 -745.497 636.646 -841.421M188.277 986.197C282.945 890.279 337.965 944.58 432.632 848.659C527.3 752.735 472.28 698.432 566.921 602.537C661.56 506.641 716.607 560.916 811.276 464.993C905.942 369.069 850.923 314.767 945.591 218.844C1040.26 122.92 1095.28 177.223 1189.97 81.272C1284.67 -14.6788 1229.62 -68.9538 1324.29 -164.878M-160.72 642.207C-66.0531 546.284 -11.0332 600.586 83.6343 504.663C178.302 408.74 123.282 354.437 217.922 258.541C312.562 162.645 367.609 216.921 462.278 120.998C556.944 25.0747 501.925 -29.2288 596.593 -125.152C691.26 -221.075 746.28 -166.772 840.975 -262.723C935.669 -358.673 880.622 -412.95 975.29 -508.873M525.554 1328.89C620.222 1232.97 675.241 1287.28 769.909 1191.35C864.576 1095.43 809.557 1041.12 904.197 945.227C998.838 849.332 1053.88 903.607 1148.55 807.684C1243.22 711.76 1188.2 657.458 1282.87 561.535C1377.53 465.611 1432.56 519.914 1527.25 423.963C1621.94 328.012 1566.89 273.737 1661.56 177.814M-332.953 486.752C-238.285 390.829 -183.266 445.132 -88.5978 349.209C6.06912 253.286 -48.9497 198.982 45.6899 103.086C140.33 7.19003 195.377 61.4662 290.045 -34.4572C384.713 -130.381 329.693 -184.684 424.36 -280.607C519.028 -376.531 574.048 -322.227 668.742 -418.178C763.437 -514.129 708.39 -568.405 803.057 -664.328M353.321 1162.15C447.988 1066.23 503.008 1120.53 597.676 1024.61C692.343 928.685 637.325 874.382 731.964 778.486C826.605 682.59 881.651 736.866 976.319 640.942C1070.99 545.019 1015.97 490.716 1110.63 394.792C1205.3 298.869 1260.32 353.172 1355.02 257.222C1449.71 161.271 1394.66 106.995 1489.33 11.0715M5.69128 819.298C100.359 723.375 155.379 777.679 250.046 681.755C344.713 585.832 289.694 531.53 384.334 435.634C478.975 339.738 534.021 394.014 628.689 298.091C723.356 202.167 668.337 147.864 763.004 51.9403C857.672 -43.9831 912.691 10.3204 1007.39 -85.6307C1102.08 -181.582 1047.03 -235.857 1141.7 -331.78M691.969 1505.98C786.636 1410.07 841.656 1464.36 936.324 1368.44C1030.99 1272.52 975.971 1218.22 1070.61 1122.33C1165.25 1026.42 1220.3 1080.7 1314.96 984.782C1409.63 888.854 1354.62 834.55 1449.29 738.627C1543.95 642.704 1598.97 697.007 1693.67 601.057C1788.36 505.106 1733.31 450.83 1827.98 354.906" stroke="#171717" stroke-opacity="0.08" stroke-width="0.447" stroke-miterlimit="10"/>
</svg>
